<mxfile host="app.diagrams.net" agent="Mozilla/5.0 (Windows NT 10.0; Win64; x64) AppleWebKit/537.36 (KHTML, like Gecko) Chrome/127.0.0.0 Safari/537.36" version="24.7.7">
  <diagram name="Page-1" id="Z4LGBEask9WMAmAf3DO-">
    <mxGraphModel dx="730" dy="757" grid="1" gridSize="10" guides="1" tooltips="1" connect="1" arrows="1" fold="1" page="1" pageScale="1" pageWidth="850" pageHeight="1100" math="0" shadow="0">
      <root>
        <mxCell id="0" />
        <mxCell id="1" parent="0" />
        <mxCell id="MmPThhGcvnmbuOWhYjhO-1" value="id" style="rounded=1;whiteSpace=wrap;html=1;" vertex="1" parent="1">
          <mxGeometry x="110" y="170" width="30" height="20" as="geometry" />
        </mxCell>
        <mxCell id="MmPThhGcvnmbuOWhYjhO-2" value=":" style="rounded=1;whiteSpace=wrap;html=1;" vertex="1" parent="1">
          <mxGeometry x="140" y="170" width="10" height="20" as="geometry" />
        </mxCell>
        <mxCell id="MmPThhGcvnmbuOWhYjhO-3" value="fill" style="rounded=1;whiteSpace=wrap;html=1;" vertex="1" parent="1">
          <mxGeometry x="150" y="170" width="30" height="20" as="geometry" />
        </mxCell>
        <mxCell id="MmPThhGcvnmbuOWhYjhO-4" value="align" style="rounded=1;whiteSpace=wrap;html=1;" vertex="1" parent="1">
          <mxGeometry x="180" y="170" width="30" height="20" as="geometry" />
        </mxCell>
        <mxCell id="MmPThhGcvnmbuOWhYjhO-5" value="sign" style="rounded=1;whiteSpace=wrap;html=1;" vertex="1" parent="1">
          <mxGeometry x="210" y="170" width="30" height="20" as="geometry" />
        </mxCell>
        <mxCell id="MmPThhGcvnmbuOWhYjhO-6" value="alt" style="rounded=1;whiteSpace=wrap;html=1;" vertex="1" parent="1">
          <mxGeometry x="240" y="170" width="30" height="20" as="geometry" />
        </mxCell>
        <mxCell id="MmPThhGcvnmbuOWhYjhO-7" value="pad" style="rounded=1;whiteSpace=wrap;html=1;" vertex="1" parent="1">
          <mxGeometry x="270" y="170" width="30" height="20" as="geometry" />
        </mxCell>
        <mxCell id="MmPThhGcvnmbuOWhYjhO-8" value="width" style="rounded=1;whiteSpace=wrap;html=1;" vertex="1" parent="1">
          <mxGeometry x="300" y="170" width="30" height="20" as="geometry" />
        </mxCell>
        <mxCell id="MmPThhGcvnmbuOWhYjhO-9" value="loc" style="rounded=1;whiteSpace=wrap;html=1;" vertex="1" parent="1">
          <mxGeometry x="330" y="170" width="30" height="20" as="geometry" />
        </mxCell>
        <mxCell id="MmPThhGcvnmbuOWhYjhO-10" value="type" style="rounded=1;whiteSpace=wrap;html=1;" vertex="1" parent="1">
          <mxGeometry x="360" y="170" width="30" height="20" as="geometry" />
        </mxCell>
        <mxCell id="MmPThhGcvnmbuOWhYjhO-11" value="0" style="rounded=1;whiteSpace=wrap;html=1;" vertex="1" parent="1">
          <mxGeometry x="110" y="200" width="30" height="20" as="geometry" />
        </mxCell>
        <mxCell id="MmPThhGcvnmbuOWhYjhO-12" value="1" style="rounded=1;whiteSpace=wrap;html=1;" vertex="1" parent="1">
          <mxGeometry x="110" y="220" width="30" height="20" as="geometry" />
        </mxCell>
        <mxCell id="MmPThhGcvnmbuOWhYjhO-13" value="..." style="rounded=1;whiteSpace=wrap;html=1;" vertex="1" parent="1">
          <mxGeometry x="110" y="240" width="30" height="20" as="geometry" />
        </mxCell>
        <mxCell id="MmPThhGcvnmbuOWhYjhO-14" value="a" style="rounded=1;whiteSpace=wrap;html=1;" vertex="1" parent="1">
          <mxGeometry x="150" y="200" width="30" height="20" as="geometry" />
        </mxCell>
        <mxCell id="MmPThhGcvnmbuOWhYjhO-15" value="b" style="rounded=1;whiteSpace=wrap;html=1;" vertex="1" parent="1">
          <mxGeometry x="150" y="220" width="30" height="20" as="geometry" />
        </mxCell>
        <mxCell id="MmPThhGcvnmbuOWhYjhO-16" value="..." style="rounded=1;whiteSpace=wrap;html=1;" vertex="1" parent="1">
          <mxGeometry x="150" y="240" width="30" height="20" as="geometry" />
        </mxCell>
        <mxCell id="MmPThhGcvnmbuOWhYjhO-23" value="&amp;lt;" style="rounded=1;whiteSpace=wrap;html=1;" vertex="1" parent="1">
          <mxGeometry x="180" y="200" width="30" height="20" as="geometry" />
        </mxCell>
        <mxCell id="MmPThhGcvnmbuOWhYjhO-24" value="^" style="rounded=1;whiteSpace=wrap;html=1;" vertex="1" parent="1">
          <mxGeometry x="180" y="220" width="30" height="20" as="geometry" />
        </mxCell>
        <mxCell id="MmPThhGcvnmbuOWhYjhO-25" value="&amp;gt;" style="rounded=1;whiteSpace=wrap;html=1;" vertex="1" parent="1">
          <mxGeometry x="180" y="240" width="30" height="20" as="geometry" />
        </mxCell>
        <mxCell id="MmPThhGcvnmbuOWhYjhO-26" value="+" style="rounded=1;whiteSpace=wrap;html=1;" vertex="1" parent="1">
          <mxGeometry x="210" y="200" width="30" height="20" as="geometry" />
        </mxCell>
        <mxCell id="MmPThhGcvnmbuOWhYjhO-27" value="-" style="rounded=1;whiteSpace=wrap;html=1;" vertex="1" parent="1">
          <mxGeometry x="210" y="220" width="30" height="20" as="geometry" />
        </mxCell>
        <mxCell id="MmPThhGcvnmbuOWhYjhO-30" value="#" style="rounded=1;whiteSpace=wrap;html=1;" vertex="1" parent="1">
          <mxGeometry x="240" y="200" width="30" height="20" as="geometry" />
        </mxCell>
        <mxCell id="MmPThhGcvnmbuOWhYjhO-31" value="0" style="rounded=1;whiteSpace=wrap;html=1;" vertex="1" parent="1">
          <mxGeometry x="300" y="200" width="30" height="20" as="geometry" />
        </mxCell>
        <mxCell id="MmPThhGcvnmbuOWhYjhO-32" value="1" style="rounded=1;whiteSpace=wrap;html=1;" vertex="1" parent="1">
          <mxGeometry x="300" y="220" width="30" height="20" as="geometry" />
        </mxCell>
        <mxCell id="MmPThhGcvnmbuOWhYjhO-33" value="..." style="rounded=1;whiteSpace=wrap;html=1;" vertex="1" parent="1">
          <mxGeometry x="300" y="240" width="30" height="20" as="geometry" />
        </mxCell>
        <mxCell id="MmPThhGcvnmbuOWhYjhO-34" value="L" style="rounded=1;whiteSpace=wrap;html=1;" vertex="1" parent="1">
          <mxGeometry x="330" y="200" width="30" height="20" as="geometry" />
        </mxCell>
        <mxCell id="MmPThhGcvnmbuOWhYjhO-35" value="b/B" style="rounded=1;whiteSpace=wrap;html=1;" vertex="1" parent="1">
          <mxGeometry x="360" y="200" width="30" height="20" as="geometry" />
        </mxCell>
        <mxCell id="MmPThhGcvnmbuOWhYjhO-36" value="d" style="rounded=1;whiteSpace=wrap;html=1;" vertex="1" parent="1">
          <mxGeometry x="360" y="220" width="30" height="20" as="geometry" />
        </mxCell>
        <mxCell id="MmPThhGcvnmbuOWhYjhO-37" value="o" style="rounded=1;whiteSpace=wrap;html=1;" vertex="1" parent="1">
          <mxGeometry x="360" y="240" width="30" height="20" as="geometry" />
        </mxCell>
        <mxCell id="MmPThhGcvnmbuOWhYjhO-38" value="x/X" style="rounded=1;whiteSpace=wrap;html=1;" vertex="1" parent="1">
          <mxGeometry x="360" y="260" width="30" height="20" as="geometry" />
        </mxCell>
        <mxCell id="MmPThhGcvnmbuOWhYjhO-39" value="0" style="rounded=1;whiteSpace=wrap;html=1;" vertex="1" parent="1">
          <mxGeometry x="270" y="200" width="30" height="20" as="geometry" />
        </mxCell>
        <mxCell id="MmPThhGcvnmbuOWhYjhO-41" value="&lt;div style=&quot;font-size: 11px;&quot;&gt;&lt;font face=&quot;Courier New&quot; style=&quot;font-size: 11px;&quot;&gt;std::print(&quot;{0:*&amp;gt;+#010b}\n&quot;, 10); // ***+0b1010&lt;/font&gt;&lt;/div&gt;&lt;div style=&quot;font-size: 11px;&quot;&gt;&lt;font face=&quot;Courier New&quot; style=&quot;font-size: 11px;&quot;&gt;std::print(&quot;{0:+010}&quot;, 10);&amp;nbsp; &amp;nbsp; &amp;nbsp; &amp;nbsp;//+000000010&lt;/font&gt;&lt;/div&gt;" style="rounded=0;whiteSpace=wrap;html=1;align=left;verticalAlign=top;" vertex="1" parent="1">
          <mxGeometry x="95" y="290" width="330" height="50" as="geometry" />
        </mxCell>
        <mxCell id="MmPThhGcvnmbuOWhYjhO-42" value="&lt;b&gt;&lt;font style=&quot;font-size: 14px;&quot;&gt;int&lt;/font&gt;&lt;/b&gt;" style="text;html=1;align=center;verticalAlign=middle;whiteSpace=wrap;rounded=0;" vertex="1" parent="1">
          <mxGeometry x="210" y="130" width="60" height="30" as="geometry" />
        </mxCell>
        <mxCell id="MmPThhGcvnmbuOWhYjhO-43" value="&lt;span style=&quot;font-size: 14px;&quot;&gt;&lt;b&gt;string&lt;/b&gt;&lt;/span&gt;" style="text;html=1;align=center;verticalAlign=middle;whiteSpace=wrap;rounded=0;" vertex="1" parent="1">
          <mxGeometry x="485" y="130" width="60" height="30" as="geometry" />
        </mxCell>
        <mxCell id="MmPThhGcvnmbuOWhYjhO-44" value="id" style="rounded=1;whiteSpace=wrap;html=1;" vertex="1" parent="1">
          <mxGeometry x="420" y="170" width="30" height="20" as="geometry" />
        </mxCell>
        <mxCell id="MmPThhGcvnmbuOWhYjhO-45" value=":" style="rounded=1;whiteSpace=wrap;html=1;" vertex="1" parent="1">
          <mxGeometry x="450" y="170" width="10" height="20" as="geometry" />
        </mxCell>
        <mxCell id="MmPThhGcvnmbuOWhYjhO-46" value="fill" style="rounded=1;whiteSpace=wrap;html=1;" vertex="1" parent="1">
          <mxGeometry x="460" y="170" width="30" height="20" as="geometry" />
        </mxCell>
        <mxCell id="MmPThhGcvnmbuOWhYjhO-47" value="align" style="rounded=1;whiteSpace=wrap;html=1;" vertex="1" parent="1">
          <mxGeometry x="490" y="170" width="30" height="20" as="geometry" />
        </mxCell>
        <mxCell id="MmPThhGcvnmbuOWhYjhO-48" value="width" style="rounded=1;whiteSpace=wrap;html=1;" vertex="1" parent="1">
          <mxGeometry x="520" y="170" width="30" height="20" as="geometry" />
        </mxCell>
        <mxCell id="MmPThhGcvnmbuOWhYjhO-50" value="." style="rounded=1;whiteSpace=wrap;html=1;" vertex="1" parent="1">
          <mxGeometry x="550" y="170" width="10" height="20" as="geometry" />
        </mxCell>
        <mxCell id="MmPThhGcvnmbuOWhYjhO-52" value="cutoff-width" style="rounded=1;whiteSpace=wrap;html=1;" vertex="1" parent="1">
          <mxGeometry x="560" y="170" width="65" height="20" as="geometry" />
        </mxCell>
        <mxCell id="MmPThhGcvnmbuOWhYjhO-53" value="type" style="rounded=1;whiteSpace=wrap;html=1;" vertex="1" parent="1">
          <mxGeometry x="625" y="170" width="30" height="20" as="geometry" />
        </mxCell>
        <mxCell id="MmPThhGcvnmbuOWhYjhO-54" value="&lt;div style=&quot;font-size: 11px;&quot;&gt;&lt;font style=&quot;font-size: 11px;&quot; face=&quot;Courier New&quot;&gt;string s = &quot;abcde&quot;;&lt;/font&gt;&lt;/div&gt;&lt;div style=&quot;font-size: 11px;&quot;&gt;&lt;font style=&quot;font-size: 11px;&quot; face=&quot;Courier New&quot;&gt;std::print(&quot;{0:*&amp;gt;10}&quot;, s);// *****abcde&lt;/font&gt;&lt;/div&gt;&lt;div style=&quot;font-size: 11px;&quot;&gt;&lt;font style=&quot;font-size: 11px;&quot; face=&quot;Courier New&quot;&gt;std::print(&quot;{:.3}&quot;, s);&amp;nbsp; &amp;nbsp;//abc&lt;/font&gt;&lt;/div&gt;" style="rounded=0;whiteSpace=wrap;html=1;align=left;verticalAlign=top;" vertex="1" parent="1">
          <mxGeometry x="410" y="210" width="270" height="60" as="geometry" />
        </mxCell>
      </root>
    </mxGraphModel>
  </diagram>
</mxfile>
